<svg width="20" height="20" viewBox="0 0 20 20" fill="none" xmlns="http://www.w3.org/2000/svg">
<path d="M6.66667 16.6667V11.6667H13.3333V16.6667H15.8333V3.33333H4.16667V16.6667H6.66667ZM8.33333 16.6667H11.6667V13.3333H8.33333V16.6667ZM17.5 16.6667H19.1667V18.3333H0.833333V16.6667H2.5V2.5C2.5 2.27898 2.5878 2.06702 2.74408 1.91074C2.90036 1.75446 3.11232 1.66666 3.33333 1.66666H16.6667C16.8877 1.66666 17.0996 1.75446 17.2559 1.91074C17.4122 2.06702 17.5 2.27898 17.5 2.5V16.6667ZM9.16667 6.66666V5H10.8333V6.66666H12.5V8.33333H10.8333V10H9.16667V8.33333H7.5V6.66666H9.16667Z" fill="#017BFF"/>
</svg>
