<svg width="20" height="20" viewBox="0 0 20 20" fill="none" xmlns="http://www.w3.org/2000/svg">
<path d="M14.4165 5.25C14.3394 5.17275 14.2479 5.11146 14.1471 5.06964C14.0462 5.02783 13.9382 5.0063 13.829 5.0063C13.7199 5.0063 13.6118 5.02783 13.511 5.06964C13.4102 5.11146 13.3186 5.17275 13.2415 5.25L8.54154 9.95L9.71654 11.125L14.4165 6.41667C14.7332 6.1 14.7332 5.56667 14.4165 5.25ZM17.9499 5.24167L9.71654 13.475L6.81654 10.5833C6.66072 10.4275 6.44939 10.34 6.22904 10.34C6.00868 10.34 5.79735 10.4275 5.64154 10.5833C5.48572 10.7392 5.39819 10.9505 5.39819 11.1708C5.39819 11.3912 5.48572 11.6025 5.64154 11.7583L9.12487 15.2417C9.44987 15.5667 9.97487 15.5667 10.2999 15.2417L19.1249 6.425C19.2021 6.34791 19.2634 6.25634 19.3052 6.15552C19.347 6.05471 19.3686 5.94664 19.3686 5.8375C19.3686 5.72836 19.347 5.6203 19.3052 5.51948C19.2634 5.41867 19.2021 5.3271 19.1249 5.25H19.1165C19.0414 5.17134 18.9511 5.10858 18.8512 5.06544C18.7513 5.02231 18.6438 4.99968 18.535 4.99891C18.4262 4.99813 18.3183 5.01922 18.2178 5.06092C18.1173 5.10262 18.0262 5.16409 17.9499 5.24167ZM0.933203 11.7667L4.41654 15.25C4.74154 15.575 5.26654 15.575 5.59154 15.25L6.17487 14.6667L2.1082 10.5833C2.03111 10.5061 1.93953 10.4448 1.83872 10.403C1.73791 10.3612 1.62984 10.3396 1.5207 10.3396C1.41156 10.3396 1.30349 10.3612 1.20268 10.403C1.10187 10.4448 1.0103 10.5061 0.933203 10.5833C0.608203 10.9083 0.608203 11.4417 0.933203 11.7667Z" fill="#017BFF"/>
</svg>
