<svg width="40" height="40" viewBox="0 0 40 40" fill="none" xmlns="http://www.w3.org/2000/svg">
<path d="M19.9997 3.33334C16.7033 3.33334 13.481 4.31082 10.7402 6.14218C7.99936 7.97353 5.86315 10.5765 4.60169 13.6219C3.34023 16.6674 3.01017 20.0185 3.65326 23.2515C4.29635 26.4845 5.88369 29.4542 8.21457 31.7851C10.5454 34.116 13.5152 35.7033 16.7482 36.3464C19.9812 36.9895 23.3323 36.6595 26.3777 35.398C29.4232 34.1365 32.0261 32.0003 33.8575 29.2595C35.6889 26.5187 36.6663 23.2964 36.6663 20C36.6663 17.8113 36.2353 15.644 35.3977 13.6219C34.5601 11.5999 33.3324 9.76253 31.7848 8.21489C30.2372 6.66725 28.3998 5.43959 26.3777 4.60201C24.3556 3.76443 22.1884 3.33334 19.9997 3.33334ZM16.6663 27.5V12.5L26.6663 20L16.6663 27.5Z" fill="white"/>
</svg>
