<svg width="20" height="20" viewBox="0 0 20 20" fill="none" xmlns="http://www.w3.org/2000/svg">
<g clip-path="url(#clip0_39_1841)">
<path d="M7.16678 13.6667C6.43909 14.3374 5.48018 14.7008 4.49072 14.6806C3.50125 14.6605 2.55791 14.2585 1.85811 13.5587C1.15831 12.8589 0.756275 11.9155 0.736145 10.9261C0.716016 9.93659 1.07935 8.97768 1.75011 8.25L8.25011 1.75C8.9778 1.07924 9.93671 0.715902 10.9262 0.736031C11.9156 0.75616 12.859 1.15819 13.5588 1.858C14.2586 2.5578 14.6606 3.50114 14.6807 4.4906C14.7009 5.48007 14.3375 6.43898 13.6668 7.16667M4.99928 4.99916L8.54095 8.54083" stroke="#017BFF" stroke-width="1.5" stroke-linecap="round" stroke-linejoin="round"/>
<path d="M14.375 12.5V16.25M12.5 14.375H16.25M19.375 13.125C19.3778 14.5804 18.8838 15.9932 17.9746 17.1297C17.0654 18.2661 15.7955 19.0583 14.375 19.375C12.9545 19.0583 11.6846 18.2661 10.7754 17.1297C9.86624 15.9932 9.3722 14.5804 9.37501 13.125V11.25C9.37501 10.9185 9.50671 10.6005 9.74113 10.3661C9.97555 10.1317 10.2935 10 10.625 10H18.125C18.4565 10 18.7745 10.1317 19.0089 10.3661C19.2433 10.6005 19.375 10.9185 19.375 11.25V13.125Z" stroke="#017BFF" stroke-width="1.5" stroke-linecap="round" stroke-linejoin="round"/>
</g>
<defs>
<clipPath id="clip0_39_1841">
<rect width="20" height="20" fill="white"/>
</clipPath>
</defs>
</svg>
