<svg width="20" height="20" viewBox="0 0 20 20" fill="none" xmlns="http://www.w3.org/2000/svg">
<path fill-rule="evenodd" clip-rule="evenodd" d="M11.9875 12.8717C10.8643 13.7691 9.44013 14.2024 8.00744 14.0825C6.57475 13.9627 5.24232 13.2988 4.28382 12.2273C3.32532 11.1557 2.81351 9.7578 2.8535 8.32066C2.89349 6.88352 3.48224 5.51624 4.49884 4.49964C5.51545 3.48303 6.88273 2.89428 8.31986 2.85429C9.757 2.8143 11.1549 3.32612 12.2265 4.28462C13.298 5.24312 13.9619 6.57554 14.0817 8.00823C14.2016 9.44092 13.7683 10.8651 12.8709 11.9883L17.1675 16.2842C17.2289 16.3414 17.2782 16.4104 17.3123 16.487C17.3465 16.5637 17.3649 16.6465 17.3664 16.7304C17.3678 16.8143 17.3524 16.8977 17.321 16.9755C17.2895 17.0533 17.2427 17.124 17.1834 17.1834C17.124 17.2427 17.0534 17.2895 16.9755 17.3209C16.8977 17.3524 16.8143 17.3678 16.7304 17.3663C16.6465 17.3648 16.5638 17.3465 16.4871 17.3123C16.4104 17.2781 16.3414 17.2289 16.2842 17.1675L11.9875 12.8717ZM5.38253 11.57C4.7709 10.9583 4.35433 10.179 4.18546 9.33064C4.01659 8.48225 4.10301 7.60286 4.43379 6.80358C4.76457 6.0043 5.32487 5.32101 6.04388 4.84008C6.76288 4.35914 7.60832 4.10214 8.47334 4.10156C9.33836 4.10098 10.1841 4.35684 10.9038 4.83681C11.6234 5.31677 12.1847 5.9993 12.5165 6.79814C12.8484 7.59697 12.936 8.47625 12.7683 9.32486C12.6005 10.1735 12.185 10.9533 11.5742 11.5658L11.57 11.57L11.5659 11.5733C10.7451 12.3922 9.63289 12.8518 8.47351 12.8511C7.31413 12.8505 6.2024 12.3897 5.38253 11.57Z" fill="#017BFF"/>
</svg>
