<svg width="20" height="20" viewBox="0 0 20 20" fill="none" xmlns="http://www.w3.org/2000/svg">
<path d="M10.0001 3.33333C13.6759 3.33333 16.6667 6.32417 16.6667 10C16.6667 13.6758 13.6759 16.6667 10.0001 16.6667C6.32425 16.6667 3.33341 13.6758 3.33341 10C3.33341 6.32417 6.32425 3.33333 10.0001 3.33333ZM10.0001 1.66667C5.39758 1.66667 1.66675 5.3975 1.66675 10C1.66675 14.6025 5.39758 18.3333 10.0001 18.3333C14.6026 18.3333 18.3334 14.6025 18.3334 10C18.3334 5.3975 14.6026 1.66667 10.0001 1.66667ZM14.1667 9.16667H10.8334V5.83333H9.16675V9.16667H5.83341V10.8333H9.16675V14.1667H10.8334V10.8333H14.1667V9.16667Z" fill="#017BFF"/>
</svg>
