<svg width="20" height="20" viewBox="0 0 20 20" fill="none" xmlns="http://www.w3.org/2000/svg">
<path d="M11.2497 6.66667H9.99967V10.8333L13.5663 12.95L14.1663 11.9417L11.2497 10.2083V6.66667ZM10.833 2.5C8.84388 2.5 6.93623 3.29018 5.52971 4.6967C4.12318 6.10322 3.33301 8.01088 3.33301 10H0.833008L4.13301 13.3583L7.49967 10H4.99967C4.99967 8.4529 5.61426 6.96917 6.70822 5.87521C7.80218 4.78125 9.28591 4.16667 10.833 4.16667C12.3801 4.16667 13.8638 4.78125 14.9578 5.87521C16.0518 6.96917 16.6663 8.4529 16.6663 10C16.6663 11.5471 16.0518 13.0308 14.9578 14.1248C13.8638 15.2188 12.3801 15.8333 10.833 15.8333C9.22467 15.8333 7.76634 15.175 6.71634 14.1167L5.53301 15.3C6.2259 16.0005 7.05149 16.5559 7.96151 16.9336C8.87152 17.3114 9.84771 17.5039 10.833 17.5C12.8221 17.5 14.7298 16.7098 16.1363 15.3033C17.5428 13.8968 18.333 11.9891 18.333 10C18.333 8.01088 17.5428 6.10322 16.1363 4.6967C14.7298 3.29018 12.8221 2.5 10.833 2.5Z" fill="#017BFF"/>
</svg>
