<svg width="20" height="20" viewBox="0 0 20 20" fill="none" xmlns="http://www.w3.org/2000/svg">
<path d="M15.8333 14.1667V9.83332C15.4167 9.91666 15 9.99999 14.5833 9.99999H14.1667V15H5.83333V9.16666C5.83333 6.83332 7.66667 4.99999 10 4.99999C10.0833 3.91666 10.5833 2.99999 11.25 2.24999C11 1.91666 10.5 1.66666 10 1.66666C9.08333 1.66666 8.33333 2.41666 8.33333 3.33332V3.58332C5.83333 4.33332 4.16667 6.58332 4.16667 9.16666V14.1667L2.5 15.8333V16.6667H17.5V15.8333L15.8333 14.1667ZM8.33333 17.5C8.33333 18.4167 9.08333 19.1667 10 19.1667C10.9167 19.1667 11.6667 18.4167 11.6667 17.5H8.33333ZM17.5 5.41666C17.5 6.99999 16.1667 8.33332 14.5833 8.33332C13 8.33332 11.6667 6.99999 11.6667 5.41666C11.6667 3.83332 13 2.49999 14.5833 2.49999C16.1667 2.49999 17.5 3.83332 17.5 5.41666Z" fill="#017BFF"/>
</svg>
