<svg width="24" height="24" viewBox="0 0 24 24" fill="none" xmlns="http://www.w3.org/2000/svg">
<path d="M21 20C21 20.2652 20.8946 20.5196 20.7071 20.7071C20.5196 20.8946 20.2652 21 20 21H4C3.73478 21 3.48043 20.8946 3.29289 20.7071C3.10536 20.5196 3 20.2652 3 20V9.48899C2.99989 9.3366 3.03462 9.18621 3.10152 9.04929C3.16841 8.91237 3.26572 8.79256 3.386 8.69899L11.386 2.47699C11.5615 2.34044 11.7776 2.2663 12 2.2663C12.2224 2.2663 12.4385 2.34044 12.614 2.47699L20.614 8.69899C20.7343 8.79256 20.8316 8.91237 20.8985 9.04929C20.9654 9.18621 21.0001 9.3366 21 9.48899V20ZM19 19V9.97799L12 4.53299L5 9.97799V19H19Z" fill="#9DB2CE"/>
</svg>
