<svg width="200" height="200" viewBox="0 0 200 200" fill="none" xmlns="http://www.w3.org/2000/svg">
<path d="M145.2 137.8H120.2V162.8C120.2 165.55 117.95 167.8 115.2 167.8C112.45 167.8 110.2 165.55 110.2 162.8V137.8H85.2C82.45 137.8 80.2 135.55 80.2 132.8C80.2 130.05 82.45 127.8 85.2 127.8H110.2V102.8C110.2 100.05 112.45 97.8 115.2 97.8C117.95 97.8 120.2 100.05 120.2 102.8V127.8H145.2C147.95 127.8 150.2 130.05 150.2 132.8C150.2 135.55 147.95 137.8 145.2 137.8Z" fill="#017BFF"/>
<path d="M198 80C194 68 182 60 170 60C153 60 140 73 140 90C140 103 148 114 160 118V135C160 160 140 180 115 180C90 180 70 160 70 135V125L101 100C113 90 120 76 120 61V10C120 4 116 0 110 0H90C84 0 80 4 80 10C80 16 84 20 90 20H100V61C100 70 96 79 89 84L60 107L31 84C24 79 20 70 20 61V20H30C36 20 40 16 40 10C40 4 36 0 30 0H10C4 0 0 4 0 10V61C0 76 7 91 19 100L50 125V135C50 171 79 200 115 200C151 200 180 171 180 135V118C196 113 204 96 198 80Z" fill="#017BFF"/>
</svg>
